<?xml version="1.0" encoding="UTF-8"?>
<svg data-bbox="50.968 20 98.064 160" xmlns="http://www.w3.org/2000/svg" width="200" height="200" viewBox="0 0 200 200" data-type="color">
    <g>
        <path fill="#9A8A78" d="M135.615 180H64.388c-7.399 0-13.42-6.018-13.42-13.417V33.42c0-7.651 5.769-13.42 13.42-13.42h71.227c7.399 0 13.417 6.021 13.417 13.42v133.163c0 7.399-6.018 13.417-13.417 13.417zM64.388 25.161c-4.786 0-8.259 3.473-8.259 8.259v133.163c0 4.94 4.269 8.256 8.259 8.256h71.227c4.94 0 8.256-4.269 8.256-8.256V33.42c0-4.94-4.269-8.259-8.256-8.259H64.388z" data-color="1"/>
        <path d="M146.451 147.999v5.161H53.548v-5.161h92.903z" fill="#9A8A78" data-color="1"/>
    </g>
</svg>
